<svg width="174" height="40" viewBox="0 0 174 40" fill="none" xmlns="http://www.w3.org/2000/svg">
<path d="M16.52 4.92001C20.808 4.92001 24.504 6.28001 27.608 9.00001L23.624 13.176C22.44 12.28 21.336 11.64 20.312 11.256C19.32 10.84 18.168 10.632 16.856 10.632C14.392 10.632 12.424 11.608 10.952 13.56C9.47999 15.48 8.74399 18.408 8.74399 22.344C8.74399 26.6 9.30398 29.624 10.424 31.416C11.544 33.176 13.288 34.056 15.656 34.056C17.32 34.056 18.824 33.688 20.168 32.952V25.416H15.848L15.08 19.848H27.8V36.312C26.072 37.432 24.168 38.296 22.088 38.904C20.008 39.512 17.928 39.816 15.848 39.816C10.792 39.816 6.98398 38.344 4.42398 35.4C1.86398 32.424 0.583984 28.072 0.583984 22.344C0.583984 18.696 1.27198 15.56 2.64798 12.936C4.05598 10.312 5.95998 8.32801 8.35998 6.98401C10.792 5.60801 13.512 4.92001 16.52 4.92001Z" fill="black"/>
<path d="M54.4175 39H47.8415L47.5055 35.784C45.6495 38.472 43.0735 39.816 39.7775 39.816C37.4415 39.816 35.6655 39.112 34.4495 37.704C33.2655 36.296 32.6735 34.328 32.6735 31.8V13.512H40.2575V30.84C40.2575 32.088 40.4495 32.968 40.8335 33.48C41.2495 33.96 41.8735 34.2 42.7055 34.2C44.3055 34.2 45.6815 33.208 46.8335 31.224V13.512H54.4175V39Z" fill="black"/>
<path d="M69.3582 12.696C71.1822 12.696 72.8942 12.968 74.4942 13.512C76.0942 14.056 77.5022 14.824 78.7182 15.816L75.9342 20.088C73.8542 18.776 71.7582 18.12 69.6462 18.12C68.6542 18.12 67.8862 18.296 67.3422 18.648C66.8302 18.968 66.5742 19.432 66.5742 20.04C66.5742 20.52 66.6862 20.92 66.9102 21.24C67.1662 21.528 67.6622 21.832 68.3982 22.152C69.1342 22.472 70.2702 22.856 71.8062 23.304C74.4622 24.072 76.4302 25.08 77.7102 26.328C79.0222 27.544 79.6782 29.24 79.6782 31.416C79.6782 33.144 79.1822 34.648 78.1902 35.928C77.1982 37.176 75.8382 38.136 74.1102 38.808C72.3822 39.48 70.4622 39.816 68.3502 39.816C66.2062 39.816 64.2062 39.48 62.3502 38.808C60.5262 38.136 58.9742 37.208 57.6942 36.024L61.3902 31.896C63.5342 33.56 65.7902 34.392 68.1582 34.392C69.3102 34.392 70.2062 34.184 70.8462 33.768C71.5182 33.352 71.8542 32.76 71.8542 31.992C71.8542 31.384 71.7262 30.904 71.4702 30.552C71.2142 30.2 70.7182 29.88 69.9822 29.592C69.2462 29.272 68.0782 28.888 66.4782 28.44C63.9502 27.704 62.0622 26.68 60.8142 25.368C59.5662 24.056 58.9422 22.424 58.9422 20.472C58.9422 19 59.3582 17.688 60.1902 16.536C61.0542 15.352 62.2702 14.424 63.8382 13.752C65.4382 13.048 67.2782 12.696 69.3582 12.696Z" fill="black"/>
<path d="M111.761 12.696C113.777 12.696 115.393 13.384 116.609 14.76C117.825 16.104 118.433 17.976 118.433 20.376V39H110.849V21.672C110.849 19.4 110.129 18.264 108.689 18.264C107.889 18.264 107.185 18.536 106.577 19.08C105.969 19.624 105.377 20.456 104.801 21.576V39H97.2174V21.672C97.2174 19.4 96.4974 18.264 95.0574 18.264C94.2894 18.264 93.5854 18.552 92.9454 19.128C92.3374 19.672 91.7454 20.488 91.1694 21.576V39H83.5854V13.512H90.2094L90.7374 16.488C91.7294 15.208 92.8174 14.264 94.0014 13.656C95.2174 13.016 96.5934 12.696 98.1294 12.696C99.5694 12.696 100.801 13.048 101.825 13.752C102.881 14.456 103.649 15.448 104.129 16.728C105.153 15.352 106.273 14.344 107.489 13.704C108.737 13.032 110.161 12.696 111.761 12.696Z" fill="black"/>
<path d="M144.388 31.608C144.388 32.568 144.516 33.272 144.772 33.72C145.06 34.168 145.508 34.504 146.116 34.728L144.532 39.672C142.964 39.544 141.684 39.208 140.692 38.664C139.7 38.088 138.932 37.192 138.388 35.976C136.724 38.536 134.164 39.816 130.708 39.816C128.18 39.816 126.164 39.08 124.66 37.608C123.156 36.136 122.404 34.216 122.404 31.848C122.404 29.064 123.428 26.936 125.476 25.464C127.524 23.992 130.484 23.256 134.356 23.256H136.948V22.152C136.948 20.648 136.628 19.624 135.988 19.08C135.348 18.504 134.228 18.216 132.628 18.216C131.796 18.216 130.788 18.344 129.604 18.6C128.42 18.824 127.204 19.144 125.956 19.56L124.228 14.568C125.828 13.96 127.46 13.496 129.124 13.176C130.82 12.856 132.388 12.696 133.828 12.696C137.476 12.696 140.148 13.448 141.844 14.952C143.54 16.456 144.388 18.712 144.388 21.72V31.608ZM132.916 34.392C134.644 34.392 135.988 33.576 136.948 31.944V27.432H135.076C133.348 27.432 132.052 27.736 131.188 28.344C130.356 28.952 129.94 29.896 129.94 31.176C129.94 32.2 130.196 33 130.708 33.576C131.252 34.12 131.988 34.392 132.916 34.392ZM136.948 8.52001C136.244 8.52001 135.636 8.40801 135.124 8.18401C134.612 7.96001 134.052 7.64001 133.444 7.22401C132.644 6.64801 131.988 6.36001 131.476 6.36001C130.932 6.36001 130.468 6.53601 130.084 6.88801C129.732 7.20801 129.348 7.73601 128.932 8.47201L125.14 6.64801C125.78 4.98401 126.628 3.62401 127.684 2.56801C128.772 1.51201 129.988 0.984009 131.332 0.984009C132.068 0.984009 132.692 1.11201 133.204 1.36801C133.748 1.59201 134.34 1.91201 134.98 2.32801C135.428 2.61601 135.78 2.82401 136.036 2.95201C136.324 3.08001 136.612 3.14401 136.9 3.14401C137.412 3.14401 137.844 2.98401 138.196 2.66401C138.58 2.31201 138.98 1.76801 139.396 1.03201L143.188 2.90401C142.516 4.60001 141.636 5.96001 140.548 6.98401C139.492 8.00801 138.292 8.52001 136.948 8.52001Z" fill="black"/>
<path d="M161.469 12.696C165.373 12.696 168.429 13.896 170.637 16.296C172.845 18.664 173.949 21.992 173.949 26.28C173.949 29 173.437 31.384 172.413 33.432C171.421 35.448 169.981 37.016 168.093 38.136C166.237 39.256 164.029 39.816 161.469 39.816C157.597 39.816 154.541 38.632 152.301 36.264C150.093 33.864 148.989 30.52 148.989 26.232C148.989 23.512 149.485 21.144 150.477 19.128C151.501 17.08 152.941 15.496 154.797 14.376C156.685 13.256 158.909 12.696 161.469 12.696ZM161.469 18.264C159.933 18.264 158.781 18.92 158.013 20.232C157.245 21.512 156.861 23.512 156.861 26.232C156.861 29.016 157.229 31.048 157.965 32.328C158.733 33.608 159.901 34.248 161.469 34.248C163.005 34.248 164.157 33.608 164.925 32.328C165.693 31.016 166.077 29 166.077 26.28C166.077 23.496 165.693 21.464 164.925 20.184C164.189 18.904 163.037 18.264 161.469 18.264Z" fill="black"/>
</svg>
